<svg width="185" height="48" xmlns="http://www.w3.org/2000/svg" xmlns:xlink="http://www.w3.org/1999/xlink"><defs><path id="a" d="M0 0h48v33.982H0z"/><path id="c" d="M0 0h13v24H0z"/><path id="e" d="M0 0h13v24H0z"/></defs><g fill="none" fill-rule="evenodd"><path d="M24 15.43c1.04 0 1.882.83 1.914 1.863a45.763 45.763 0 0 0 19.035-5C40.842 4.959 33.002 0 24 0 14.998 0 7.16 4.959 3.052 12.293a45.763 45.763 0 0 0 19.034 5A1.918 1.918 0 0 1 24 15.43" fill="#FFF"/><g transform="translate(0 14.018)"><mask id="b" fill="#fff"><use xlink:href="#a"/></mask><path d="M45.824 0A47.561 47.561 0 0 1 33.6 4.269v12.228a1.92 1.92 0 1 1-3.84 0V4.872c-1.267.152-2.544.27-3.84.323v13.222a1.92 1.92 0 0 1-3.84 0V5.195a48.874 48.874 0 0 1-3.84-.323v11.625a1.92 1.92 0 1 1-3.84 0V4.27A47.546 47.546 0 0 1 2.176 0 23.885 23.885 0 0 0 0 9.982c0 13.256 10.746 24 24 24 13.256 0 24-10.744 24-24 0-3.563-.782-6.94-2.175-9.982" fill="#FFF" mask="url(#b)"/></g><g><path d="M66.42 36c-1.378 0-2.545-.205-3.5-.618-.958-.41-1.684-.894-2.178-1.447-.496-.553-.742-.992-.742-1.317 0-.13.042-.27.129-.423.085-.15.181-.27.29-.358a.514.514 0 0 1 .323-.128c.193 0 .391.134.597.405.203.272.488.591.855.961.364.368.87.687 1.516.958.645.272 1.494.406 2.548.406 1.097 0 2.026-.183 2.79-.553a3.827 3.827 0 0 0 1.742-1.642c.397-.726.597-1.62.597-2.683 0-1.128-.2-2.033-.597-2.715a4.982 4.982 0 0 0-1.548-1.657 9.592 9.592 0 0 0-2.097-1.043 206.8 206.8 0 0 1-2.29-.827 10.452 10.452 0 0 1-2.113-1.059 4.767 4.767 0 0 1-1.565-1.707c-.397-.716-.596-1.646-.596-2.797 0-1.17.21-2.128.629-2.878.419-.748.961-1.333 1.629-1.756a6.54 6.54 0 0 1 2.129-.878A10.372 10.372 0 0 1 67.16 12c.645 0 1.274.055 1.887.163.613.11 1.178.246 1.694.408.516.163.925.352 1.226.567.3.218.451.445.451.683 0 .13-.032.266-.096.407-.065.14-.152.266-.258.376a.534.534 0 0 1-.388.162c-.173 0-.429-.103-.774-.31-.345-.206-.818-.411-1.42-.617-.602-.207-1.386-.31-2.354-.31a7.71 7.71 0 0 0-2.306.357 3.95 3.95 0 0 0-1.888 1.238c-.495.585-.741 1.419-.741 2.502 0 .933.197 1.68.596 2.244.398.565.92 1.018 1.565 1.366a13.18 13.18 0 0 0 2.097.896c.752.248 1.516.535 2.29.862a9.138 9.138 0 0 1 2.113 1.234c.633.5 1.151 1.16 1.548 1.985.397.824.597 1.885.597 3.185 0 1.541-.284 2.797-.855 3.773-.57.975-1.345 1.69-2.322 2.146-.978.457-2.113.683-3.404.683M80.613 24.608h4.903c1.526 0 2.72-.439 3.58-1.315.86-.872 1.291-2.22 1.291-4.036v-.394c0-1.795-.431-3.123-1.29-3.988-.861-.864-2.055-1.297-3.58-1.297h-4.904v11.03ZM79.806 36a.925.925 0 0 1-.564-.18.6.6 0 0 1-.242-.51V12.66c0-.175.065-.323.194-.444A.86.86 0 0 1 79.71 12h5.838c1.204 0 2.295.226 3.275.675.977.447 1.752 1.176 2.322 2.183.569 1.006.855 2.343.855 4.005v.361c0 1.664-.286 2.998-.855 4.006-.57 1.005-1.35 1.74-2.339 2.197-.99.462-2.086.69-3.29.69h-4.903v9.194a.59.59 0 0 1-.258.508.948.948 0 0 1-.549.181Z" fill="#FFF"/><g transform="translate(97 12)"><mask id="d" fill="#fff"><use xlink:href="#c"/></mask><path d="M6.468 22.438c1.53 0 2.732-.43 3.605-1.287.874-.859 1.31-2.175 1.31-3.956V6.806c0-1.78-.432-3.098-1.293-3.957-.863-.856-2.07-1.286-3.622-1.286-1.532 0-2.729.43-3.59 1.286-.863.86-1.293 2.176-1.293 3.957v10.389c0 1.78.43 3.097 1.293 3.956.861.857 2.058 1.287 3.59 1.287m0 1.563c-1.209 0-2.302-.228-3.283-.684-.982-.456-1.758-1.176-2.328-2.166C.285 20.164 0 18.843 0 17.195V6.806c0-1.648.285-2.97.857-3.957.57-.987 1.346-1.71 2.328-2.165C4.165.228 5.26 0 6.468 0c1.229 0 2.338.228 3.33.684.99.456 1.773 1.178 2.345 2.165.57.988.857 2.309.857 3.957v10.389c0 1.648-.287 2.97-.857 3.956-.572.99-1.354 1.71-2.344 2.166-.993.456-2.102.684-3.331.684" fill="#FFF" mask="url(#d)"/></g><path d="M117.609 23.279h4.601c1.523 0 2.762-.377 3.717-1.131.953-.755 1.432-2.005 1.432-3.755 0-1.727-.479-2.96-1.432-3.702-.955-.744-2.194-1.115-3.717-1.115h-4.601v9.703ZM128.13 36c-.237 0-.434-.135-.595-.408l-.435-.74-5.051-10.065h-4.441v10.492c0 .219-.087.389-.258.508a.93.93 0 0 1-.547.18.91.91 0 0 1-.563-.18.595.595 0 0 1-.241-.508V12.656a.6.6 0 0 1 .177-.44c.117-.122.284-.193.499-.216h5.534c1.201 0 2.317.193 3.347.574a5.029 5.029 0 0 1 2.478 1.967c.621.928.933 2.205.933 3.822 0 1.375-.231 2.502-.692 3.375-.463.875-1.084 1.537-1.866 1.985-.785.45-1.67.748-2.655.9l5.148 10.164a.559.559 0 0 1 .08.197c.011.065.017.12.017.164a.68.68 0 0 1-.129.41 1.28 1.28 0 0 1-.321.313.736.736 0 0 1-.419.129ZM136.609 23.279h4.601c1.523 0 2.762-.377 3.717-1.131.953-.755 1.432-2.005 1.432-3.755 0-1.727-.479-2.96-1.432-3.702-.955-.744-2.194-1.115-3.717-1.115h-4.601v9.703ZM147.13 36c-.237 0-.434-.135-.595-.408l-.435-.74-5.051-10.065h-4.441v10.492c0 .219-.087.389-.258.508a.93.93 0 0 1-.547.18.91.91 0 0 1-.563-.18.595.595 0 0 1-.241-.508V12.656a.6.6 0 0 1 .177-.44c.117-.122.284-.193.499-.216h5.534c1.201 0 2.317.193 3.347.574a5.029 5.029 0 0 1 2.478 1.967c.621.928.933 2.205.933 3.822 0 1.375-.231 2.502-.692 3.375-.463.875-1.084 1.537-1.866 1.985-.785.45-1.67.748-2.655.9l5.148 10.164a.559.559 0 0 1 .08.197c.011.065.017.12.017.164a.68.68 0 0 1-.129.41 1.28 1.28 0 0 1-.321.313.736.736 0 0 1-.419.129ZM154.677 28.836h8.613l-4.273-13.905-4.34 13.905ZM151.894 36a.998.998 0 0 1-.414-.098 1.094 1.094 0 0 1-.347-.244.536.536 0 0 1-.133-.374c0-.066.01-.13.033-.198l7.056-22.5c.066-.218.186-.37.364-.456a1.249 1.249 0 0 1 1.143.017.758.758 0 0 1 .381.44l6.99 22.5c.02.066.033.131.033.197 0 .107-.05.221-.15.342-.098.12-.22.21-.363.276a1.08 1.08 0 0 1-.448.098.77.77 0 0 1-.414-.114c-.122-.075-.205-.201-.248-.377l-1.623-5.177h-9.54l-1.59 5.177a.573.573 0 0 1-.266.377.925.925 0 0 1-.464.114Z" fill="#FFF"/><g transform="translate(172 12)"><mask id="f" fill="#fff"><use xlink:href="#e"/></mask><path d="M.803 24a.905.905 0 0 1-.562-.18.597.597 0 0 1-.241-.51V.69C0 .426.08.245.24.147A1.05 1.05 0 0 1 .804 0c.192 0 .369.072.53.213.16.144.304.316.433.526.128.209.234.41.32.607l9.31 18.747V.657c0-.218.08-.384.24-.493A.977.977 0 0 1 12.199 0c.193 0 .373.055.546.164.17.109.257.275.257.493V23.31c0 .22-.086.39-.257.508a.93.93 0 0 1-.546.181c-.257 0-.481-.135-.674-.41a5.884 5.884 0 0 1-.481-.805L1.605 3.875V23.31c0 .22-.086.39-.257.508A.926.926 0 0 1 .803 24" fill="#FFF" mask="url(#f)"/></g></g></g></svg>